<svg width="135" height="255" viewBox="0 0 135 255" fill="none" xmlns="http://www.w3.org/2000/svg">
<path d="M84.0786 143.51L87.5786 148.51L85.0786 143.01L84.0786 143.51Z" fill="#232323" stroke="#232323"/>
<path d="M94.5786 138.51L94.0786 139.01L95.0786 140.51L94.5786 138.51Z" stroke="#232323"/>
<path d="M93.5786 139.01L95.5786 142.51L87.5786 147.01L85.0786 142.51L93.5786 139.01Z" fill="#442B20" stroke="#442B20"/>
<path d="M95.0786 242.01C92.168 245.901 91.6116 249.333 92.0786 254.01H127.079C130.54 252.357 133.378 250.388 133.579 248.01C133.779 245.633 117.627 245.209 111.079 241.51C110.745 239.177 110.11 232.788 111.079 226.01C112.079 219.01 113.579 208.01 113.579 208.01C113.579 208.01 115.579 182.51 113.579 170.01C111.579 157.51 102.54 147.315 98.0786 133.01H94.0786C94.3352 136.765 94.6808 138.843 95.5786 142.51C93.412 144.01 88.5786 147.01 86.5786 147.01C84.5786 147.01 80.412 137.677 78.0786 133.01L57.5786 133.01C59.4291 143.781 61.0786 171.51 60.0786 175.01C59.0786 178.51 53.0229 186.113 46.5786 191.51C32.4888 201.214 24.508 206.492 10.0786 215.51C10.0786 215.51 5.07863 214.51 2.07863 217.51C-0.921366 220.51 2.57863 219.51 9.57863 235.01C16.5786 250.51 16.6193 252.446 20.5786 253.01C24.8079 253.613 22.5786 250.01 20.5786 245.01C18.9786 241.01 19.912 234.01 20.5786 231.01C20.5786 231.01 38.161 219.261 39.0786 218.51C39.9963 217.759 39.3394 218.104 45.5786 213.51C48.6343 211.26 63.5786 206.01 65.5786 205.01C67.5786 204.01 75.0786 196.01 78.0786 189.51C81.0786 183.01 83.0786 169.51 83.0786 169.51C84.7366 168.799 91.3588 183.405 92.0786 184.51C92.7985 185.615 94.2541 218.574 92.0786 242.01H95.0786Z" fill="black" stroke="black"/>
<path d="M53.0354 120.51C44.8382 95.582 45.0354 82.5102 54.0354 62.0102L53.0354 120.51Z" fill="#FF4C00" stroke="black"/>
<path d="M98.5786 133.51H55.0786C50.4517 103.402 50.0786 72.5102 55.0786 57.0102C60.0785 41.5102 72.5786 36.0102 72.5786 36.0102C72.5786 36.0102 76.5786 30.5102 76.5786 28.0102C76.5786 25.5102 76.0786 17.0102 76.5786 14.0102C77.0786 11.0102 80.0786 4.0102 85.5786 1.5102C91.0786 -0.989792 103.079 6.5102 103.079 6.5102C103.079 6.5102 113.579 14.0102 113.579 19.5102C113.579 25.0102 104.775 36.6166 102.079 48.0102C102.079 48.0102 102.579 64.0102 102.079 65.5102C101.579 67.0102 98.4371 69.5131 98.5786 72.5102C98.7201 75.5073 101.623 109.913 98.5786 133.51Z" fill="#FF4C00" stroke="black"/>
<path d="M79.0786 133.01H93.5786L94.5786 138.01L83.5786 143.01L79.0786 133.01Z" fill="#FF4C00" stroke="#FF4C00"/>
<path d="M80.5786 40.5102C87.3069 43.2187 89.5318 46.1465 90.5786 54.0102C87.3001 85.3465 88.9325 102.699 94.0786 133.51L94.5786 138.01C94.4531 138.094 94.2865 138.198 94.0786 138.32C92.6305 139.17 89.1751 140.912 83.5786 143.01C71.0472 116.484 62.5501 90.4418 65.0786 60.5102C65.9931 56.6024 66.7445 54.5564 69.0786 51.5102" stroke="black"/>
<path d="M100.079 73.0102V71.0102" stroke="#FF4C00"/>
<path d="M100.079 71.0102V44.5102" stroke="black"/>
</svg>
