<svg width="1022" height="316" viewBox="0 0 1022 316" fill="none" xmlns="http://www.w3.org/2000/svg">
<g filter="url(#filter0_d_32_5)">
<path d="M96.1818 77.4545C96.1818 87.8182 94.1667 96.5606 90.1364 103.682C86.1061 110.773 80.6667 116.152 73.8182 119.818C66.9697 123.455 59.3333 125.273 50.9091 125.273C42.4242 125.273 34.7576 123.439 27.9091 119.773C21.0909 116.076 15.6667 110.682 11.6364 103.591C7.63636 96.4697 5.63636 87.7576 5.63636 77.4545C5.63636 67.0909 7.63636 58.3636 11.6364 51.2727C15.6667 44.1515 21.0909 38.7727 27.9091 35.1364C34.7576 31.4697 42.4242 29.6364 50.9091 29.6364C59.3333 29.6364 66.9697 31.4697 73.8182 35.1364C80.6667 38.7727 86.1061 44.1515 90.1364 51.2727C94.1667 58.3636 96.1818 67.0909 96.1818 77.4545ZM70.1818 77.4545C70.1818 71.8788 69.4394 67.1818 67.9545 63.3636C66.5 59.5151 64.3333 56.6061 61.4545 54.6364C58.6061 52.6364 55.0909 51.6364 50.9091 51.6364C46.7273 51.6364 43.197 52.6364 40.3182 54.6364C37.4697 56.6061 35.303 59.5151 33.8182 63.3636C32.3636 67.1818 31.6364 71.8788 31.6364 77.4545C31.6364 83.0303 32.3636 87.7424 33.8182 91.5909C35.303 95.4091 37.4697 98.3182 40.3182 100.318C43.197 102.288 46.7273 103.273 50.9091 103.273C55.0909 103.273 58.6061 102.288 61.4545 100.318C64.3333 98.3182 66.5 95.4091 67.9545 91.5909C69.4394 87.7424 70.1818 83.0303 70.1818 77.4545ZM133.33 30.9091V124H108.239V30.9091H133.33ZM165.568 125.091C161.114 125.091 157.174 124.364 153.75 122.909C150.356 121.424 147.689 119.182 145.75 116.182C143.811 113.182 142.841 109.364 142.841 104.727C142.841 100.909 143.492 97.6515 144.795 94.9545C146.098 92.2273 147.917 90 150.25 88.2727C152.583 86.5455 155.295 85.2273 158.386 84.3182C161.508 83.4091 164.871 82.8182 168.477 82.5455C172.386 82.2424 175.523 81.8788 177.886 81.4545C180.28 81 182.008 80.3788 183.068 79.5909C184.129 78.7727 184.659 77.697 184.659 76.3636V76.1818C184.659 74.3636 183.962 72.9697 182.568 72C181.174 71.0303 179.386 70.5455 177.205 70.5455C174.811 70.5455 172.856 71.0758 171.341 72.1364C169.856 73.1667 168.962 74.7576 168.659 76.9091H145.568C145.871 72.6667 147.22 68.7576 149.614 65.1818C152.038 61.5758 155.568 58.697 160.205 56.5455C164.841 54.3636 170.629 53.2727 177.568 53.2727C182.568 53.2727 187.053 53.8636 191.023 55.0455C194.992 56.197 198.371 57.8182 201.159 59.9091C203.947 61.9697 206.068 64.3939 207.523 67.1818C209.008 69.9394 209.75 72.9394 209.75 76.1818V124H186.295V114.182H185.75C184.356 116.788 182.659 118.894 180.659 120.5C178.689 122.106 176.432 123.273 173.886 124C171.371 124.727 168.598 125.091 165.568 125.091ZM173.75 109.273C175.659 109.273 177.447 108.879 179.114 108.091C180.811 107.303 182.189 106.167 183.25 104.682C184.311 103.197 184.841 101.394 184.841 99.2727V93.4545C184.174 93.7273 183.462 93.9848 182.705 94.2273C181.977 94.4697 181.189 94.697 180.341 94.9091C179.523 95.1212 178.644 95.3182 177.705 95.5C176.795 95.6818 175.841 95.8485 174.841 96C172.902 96.303 171.311 96.803 170.068 97.5C168.856 98.1667 167.947 99 167.341 100C166.765 100.97 166.477 102.061 166.477 103.273C166.477 105.212 167.159 106.697 168.523 107.727C169.886 108.758 171.629 109.273 173.75 109.273ZM169.932 45.4545L178.659 25.0909H200.114L186.477 45.4545H169.932ZM246.102 111.273L245.739 116.364C245.436 120.727 244.708 124.909 243.557 128.909C242.436 132.909 241.239 136.455 239.966 139.545C238.723 142.636 237.739 145.03 237.011 146.727H221.557C222.042 145.03 222.723 142.576 223.602 139.364C224.511 136.182 225.33 132.576 226.057 128.545C226.814 124.545 227.193 120.485 227.193 116.364V111.273H246.102ZM327.011 88.6818H309.693C309.602 87.6136 309.227 86.6932 308.568 85.9205C307.909 85.1477 307.057 84.5568 306.011 84.1477C304.989 83.7159 303.852 83.5 302.602 83.5C300.989 83.5 299.602 83.7955 298.443 84.3864C297.284 84.9773 296.716 85.8182 296.739 86.9091C296.716 87.6818 297.045 88.3977 297.727 89.0568C298.432 89.7159 299.784 90.2273 301.784 90.5909L312.42 92.5C317.784 93.4773 321.773 95.125 324.386 97.4432C327.023 99.7386 328.352 102.818 328.375 106.682C328.352 110.409 327.239 113.648 325.034 116.398C322.852 119.125 319.864 121.239 316.068 122.739C312.295 124.216 307.989 124.955 303.148 124.955C295.148 124.955 288.886 123.318 284.364 120.045C279.864 116.773 277.352 112.455 276.83 107.091H295.511C295.761 108.75 296.58 110.034 297.966 110.943C299.375 111.83 301.148 112.273 303.284 112.273C305.011 112.273 306.432 111.977 307.545 111.386C308.682 110.795 309.261 109.955 309.284 108.864C309.261 107.864 308.761 107.068 307.784 106.477C306.83 105.886 305.33 105.409 303.284 105.045L294.011 103.409C288.67 102.477 284.67 100.705 282.011 98.0909C279.352 95.4773 278.034 92.1136 278.057 88C278.034 84.3636 278.989 81.2841 280.92 78.7614C282.875 76.2159 285.659 74.2841 289.273 72.9659C292.909 71.625 297.216 70.9545 302.193 70.9545C309.761 70.9545 315.727 72.5227 320.091 75.6591C324.477 78.7955 326.784 83.1364 327.011 88.6818ZM360.676 124.955C355.085 124.955 350.267 123.886 346.222 121.75C342.199 119.591 339.097 116.5 336.915 112.477C334.756 108.432 333.676 103.591 333.676 97.9545C333.676 92.5455 334.767 87.8182 336.949 83.7727C339.131 79.7273 342.21 76.5795 346.188 74.3295C350.165 72.0795 354.858 70.9545 360.267 70.9545C364.222 70.9545 367.801 71.5682 371.006 72.7955C374.21 74.0227 376.949 75.8068 379.222 78.1477C381.494 80.4659 383.244 83.2841 384.472 86.6023C385.699 89.9205 386.312 93.6591 386.312 97.8182V102.182H339.54V91.8182H368.994C368.972 90.3182 368.585 89 367.835 87.8636C367.108 86.7045 366.119 85.8068 364.869 85.1705C363.642 84.5114 362.244 84.1818 360.676 84.1818C359.153 84.1818 357.756 84.5114 356.483 85.1705C355.21 85.8068 354.188 86.6932 353.415 87.8295C352.665 88.9659 352.267 90.2955 352.222 91.8182V103C352.222 104.682 352.574 106.182 353.278 107.5C353.983 108.818 354.994 109.852 356.312 110.602C357.631 111.352 359.222 111.727 361.085 111.727C362.381 111.727 363.563 111.545 364.631 111.182C365.722 110.818 366.653 110.295 367.426 109.614C368.199 108.909 368.767 108.068 369.131 107.091H386.312C385.722 110.727 384.324 113.886 382.119 116.568C379.915 119.227 376.994 121.295 373.358 122.773C369.744 124.227 365.517 124.955 360.676 124.955ZM393.991 71.6364H412.81V125.773C412.81 130.364 411.844 133.955 409.912 136.545C408.003 139.136 405.321 140.966 401.866 142.034C398.412 143.102 394.378 143.636 389.764 143.636C389.082 143.636 388.457 143.625 387.889 143.602C387.298 143.58 386.651 143.545 385.946 143.5V129.591C386.401 129.636 386.798 129.67 387.139 129.693C387.457 129.716 387.787 129.727 388.128 129.727C390.378 129.727 391.912 129.375 392.73 128.67C393.571 127.989 393.991 126.886 393.991 125.364V71.6364ZM403.401 66.1818C400.855 66.1818 398.673 65.3409 396.855 63.6591C395.037 61.9773 394.128 59.9545 394.128 57.5909C394.128 55.2273 395.037 53.2045 396.855 51.5227C398.673 49.8409 400.855 49 403.401 49C405.969 49 408.151 49.8409 409.946 51.5227C411.764 53.2045 412.673 55.2273 412.673 57.5909C412.673 59.9545 411.764 61.9773 409.946 63.6591C408.151 65.3409 405.969 66.1818 403.401 66.1818ZM436.989 124.818C433.648 124.818 430.693 124.273 428.125 123.182C425.58 122.068 423.58 120.386 422.125 118.136C420.67 115.886 419.943 113.023 419.943 109.545C419.943 106.682 420.432 104.239 421.409 102.216C422.386 100.17 423.75 98.5 425.5 97.2045C427.25 95.9091 429.284 94.9205 431.602 94.2386C433.943 93.5568 436.466 93.1136 439.17 92.9091C442.102 92.6818 444.455 92.4091 446.227 92.0909C448.023 91.75 449.318 91.2841 450.114 90.6932C450.909 90.0795 451.307 89.2727 451.307 88.2727V88.1364C451.307 86.7727 450.784 85.7273 449.739 85C448.693 84.2727 447.352 83.9091 445.716 83.9091C443.92 83.9091 442.455 84.3068 441.318 85.1023C440.205 85.875 439.534 87.0682 439.307 88.6818H421.989C422.216 85.5 423.227 82.5682 425.023 79.8864C426.841 77.1818 429.489 75.0227 432.966 73.4091C436.443 71.7727 440.784 70.9545 445.989 70.9545C449.739 70.9545 453.102 71.3977 456.08 72.2841C459.057 73.1477 461.591 74.3636 463.682 75.9318C465.773 77.4773 467.364 79.2955 468.455 81.3864C469.568 83.4545 470.125 85.7045 470.125 88.1364V124H452.534V116.636H452.125C451.08 118.591 449.807 120.17 448.307 121.375C446.83 122.58 445.136 123.455 443.227 124C441.341 124.545 439.261 124.818 436.989 124.818ZM443.125 112.955C444.557 112.955 445.898 112.659 447.148 112.068C448.42 111.477 449.455 110.625 450.25 109.511C451.045 108.398 451.443 107.045 451.443 105.455V101.091C450.943 101.295 450.409 101.489 449.841 101.67C449.295 101.852 448.705 102.023 448.068 102.182C447.455 102.341 446.795 102.489 446.091 102.625C445.409 102.761 444.693 102.886 443.943 103C442.489 103.227 441.295 103.602 440.364 104.125C439.455 104.625 438.773 105.25 438.318 106C437.886 106.727 437.67 107.545 437.67 108.455C437.67 109.909 438.182 111.023 439.205 111.795C440.227 112.568 441.534 112.955 443.125 112.955ZM497.969 124V54.1818H516.787V80.7727H517.06C517.741 79 518.741 77.375 520.06 75.8977C521.378 74.3977 523.014 73.2045 524.969 72.3182C526.923 71.4091 529.196 70.9545 531.787 70.9545C535.241 70.9545 538.526 71.875 541.639 73.7159C544.776 75.5568 547.321 78.4545 549.276 82.4091C551.253 86.3636 552.241 91.5 552.241 97.8182C552.241 103.864 551.298 108.875 549.412 112.852C547.548 116.83 545.048 119.795 541.912 121.75C538.798 123.705 535.378 124.682 531.651 124.682C529.196 124.682 527.003 124.284 525.071 123.489C523.162 122.67 521.526 121.568 520.162 120.182C518.821 118.773 517.787 117.182 517.06 115.409H516.651V124H497.969ZM516.378 97.8182C516.378 100.364 516.707 102.568 517.366 104.432C518.048 106.273 519.003 107.705 520.23 108.727C521.48 109.727 522.969 110.227 524.696 110.227C526.423 110.227 527.889 109.739 529.094 108.761C530.321 107.761 531.253 106.341 531.889 104.5C532.548 102.636 532.878 100.409 532.878 97.8182C532.878 95.2273 532.548 93.0114 531.889 91.1705C531.253 89.3068 530.321 87.8864 529.094 86.9091C527.889 85.9091 526.423 85.4091 524.696 85.4091C522.969 85.4091 521.48 85.9091 520.23 86.9091C519.003 87.8864 518.048 89.3068 517.366 91.1705C516.707 93.0114 516.378 95.2273 516.378 97.8182ZM585.207 124.955C579.616 124.955 574.798 123.886 570.753 121.75C566.73 119.591 563.628 116.5 561.446 112.477C559.287 108.432 558.207 103.591 558.207 97.9545C558.207 92.5455 559.298 87.8182 561.48 83.7727C563.662 79.7273 566.741 76.5795 570.719 74.3295C574.696 72.0795 579.389 70.9545 584.798 70.9545C588.753 70.9545 592.332 71.5682 595.537 72.7955C598.741 74.0227 601.48 75.8068 603.753 78.1477C606.026 80.4659 607.776 83.2841 609.003 86.6023C610.23 89.9205 610.844 93.6591 610.844 97.8182V102.182H564.071V91.8182H593.526C593.503 90.3182 593.116 89 592.366 87.8636C591.639 86.7045 590.651 85.8068 589.401 85.1705C588.173 84.5114 586.776 84.1818 585.207 84.1818C583.685 84.1818 582.287 84.5114 581.014 85.1705C579.741 85.8068 578.719 86.6932 577.946 87.8295C577.196 88.9659 576.798 90.2955 576.753 91.8182V103C576.753 104.682 577.105 106.182 577.81 107.5C578.514 108.818 579.526 109.852 580.844 110.602C582.162 111.352 583.753 111.727 585.616 111.727C586.912 111.727 588.094 111.545 589.162 111.182C590.253 110.818 591.185 110.295 591.957 109.614C592.73 108.909 593.298 108.068 593.662 107.091H610.844C610.253 110.727 608.855 113.886 606.651 116.568C604.446 119.227 601.526 121.295 597.889 122.773C594.276 124.227 590.048 124.955 585.207 124.955ZM618.523 124V71.6364H636.386V81.5909H636.932C638.023 78.3182 639.886 75.7273 642.523 73.8182C645.159 71.9091 648.295 70.9545 651.932 70.9545C655.614 70.9545 658.784 71.9318 661.443 73.8864C664.102 75.8182 665.705 78.3864 666.25 81.5909H666.795C667.682 78.3864 669.568 75.8182 672.455 73.8864C675.341 71.9318 678.727 70.9545 682.614 70.9545C687.636 70.9545 691.705 72.5682 694.818 75.7955C697.955 79.0227 699.523 83.3182 699.523 88.6818V124H680.705V93.4545C680.705 91.1591 680.125 89.3636 678.966 88.0682C677.807 86.75 676.25 86.0909 674.295 86.0909C672.364 86.0909 670.83 86.75 669.693 88.0682C668.58 89.3636 668.023 91.1591 668.023 93.4545V124H650.023V93.4545C650.023 91.1591 649.443 89.3636 648.284 88.0682C647.125 86.75 645.568 86.0909 643.614 86.0909C642.318 86.0909 641.205 86.3864 640.273 86.9773C639.341 87.5682 638.614 88.4205 638.091 89.5341C637.591 90.625 637.341 91.9318 637.341 93.4545V124H618.523ZM743.168 89.0909V103.273H710.44V89.0909H743.168ZM807.139 71.6364L789.548 124H767.73L750.139 71.6364H769.912L778.366 106.273H778.912L787.366 71.6364H807.139ZM812.491 124V71.6364H831.31V124H812.491ZM821.901 66.1818C819.355 66.1818 817.173 65.3409 815.355 63.6591C813.537 61.9773 812.628 59.9545 812.628 57.5909C812.628 55.2273 813.537 53.2045 815.355 51.5227C817.173 49.8409 819.355 49 821.901 49C824.469 49 826.651 49.8409 828.446 51.5227C830.264 53.2045 831.173 55.2273 831.173 57.5909C831.173 59.9545 830.264 61.9773 828.446 63.6591C826.651 65.3409 824.469 66.1818 821.901 66.1818ZM859.716 94.5455V124H840.898V71.6364H858.761V81.5909H859.307C860.443 78.2727 862.443 75.6705 865.307 73.7841C868.193 71.8977 871.557 70.9545 875.398 70.9545C879.102 70.9545 882.318 71.8068 885.045 73.5114C887.795 75.1932 889.92 77.5114 891.42 80.4659C892.943 83.4205 893.693 86.7955 893.67 90.5909V124H874.852V94.5455C874.875 91.9545 874.216 89.9205 872.875 88.4432C871.557 86.9659 869.716 86.2273 867.352 86.2273C865.807 86.2273 864.455 86.5682 863.295 87.25C862.159 87.9091 861.284 88.8636 860.67 90.1136C860.057 91.3409 859.739 92.8182 859.716 94.5455ZM921.915 124.682C918.188 124.682 914.756 123.705 911.619 121.75C908.506 119.795 906.006 116.83 904.119 112.852C902.256 108.875 901.324 103.864 901.324 97.8182C901.324 91.5 902.301 86.3636 904.256 82.4091C906.233 78.4545 908.778 75.5568 911.892 73.7159C915.028 71.875 918.324 70.9545 921.778 70.9545C924.369 70.9545 926.642 71.4091 928.597 72.3182C930.551 73.2045 932.188 74.3977 933.506 75.8977C934.824 77.375 935.824 79 936.506 80.7727H936.778V54.1818H955.597V124H936.915V115.409H936.506C935.778 117.182 934.733 118.773 933.369 120.182C932.028 121.568 930.392 122.67 928.46 123.489C926.551 124.284 924.369 124.682 921.915 124.682ZM928.869 110.227C930.597 110.227 932.074 109.727 933.301 108.727C934.551 107.705 935.506 106.273 936.165 104.432C936.847 102.568 937.188 100.364 937.188 97.8182C937.188 95.2273 936.847 93.0114 936.165 91.1705C935.506 89.3068 934.551 87.8864 933.301 86.9091C932.074 85.9091 930.597 85.4091 928.869 85.4091C927.142 85.4091 925.665 85.9091 924.438 86.9091C923.233 87.8864 922.301 89.3068 921.642 91.1705C921.006 93.0114 920.688 95.2273 920.688 97.8182C920.688 100.409 921.006 102.636 921.642 104.5C922.301 106.341 923.233 107.761 924.438 108.761C925.665 109.739 927.142 110.227 928.869 110.227ZM990.062 124.955C984.381 124.955 979.517 123.83 975.472 121.58C971.426 119.307 968.324 116.148 966.165 112.102C964.006 108.034 962.926 103.318 962.926 97.9545C962.926 92.5909 964.006 87.8864 966.165 83.8409C968.324 79.7727 971.426 76.6136 975.472 74.3636C979.517 72.0909 984.381 70.9545 990.062 70.9545C995.744 70.9545 1000.61 72.0909 1004.65 74.3636C1008.7 76.6136 1011.8 79.7727 1013.96 83.8409C1016.12 87.8864 1017.2 92.5909 1017.2 97.9545C1017.2 103.318 1016.12 108.034 1013.96 112.102C1011.8 116.148 1008.7 119.307 1004.65 121.58C1000.61 123.83 995.744 124.955 990.062 124.955ZM990.199 111.045C991.79 111.045 993.165 110.511 994.324 109.443C995.483 108.375 996.381 106.852 997.017 104.875C997.653 102.898 997.972 100.545 997.972 97.8182C997.972 95.0682 997.653 92.7159 997.017 90.7614C996.381 88.7841 995.483 87.2614 994.324 86.1932C993.165 85.125 991.79 84.5909 990.199 84.5909C988.517 84.5909 987.074 85.125 985.869 86.1932C984.665 87.2614 983.744 88.7841 983.108 90.7614C982.472 92.7159 982.153 95.0682 982.153 97.8182C982.153 100.545 982.472 102.898 983.108 104.875C983.744 106.852 984.665 108.375 985.869 109.443C987.074 110.511 988.517 111.045 990.199 111.045ZM61.2614 192C61.0795 189.727 60.2273 187.955 58.7045 186.682C57.2045 185.409 54.9205 184.773 51.8523 184.773C49.8977 184.773 48.2955 185.011 47.0455 185.489C45.8182 185.943 44.9091 186.568 44.3182 187.364C43.7273 188.159 43.4205 189.068 43.3977 190.091C43.3523 190.932 43.5 191.693 43.8409 192.375C44.2045 193.034 44.7727 193.636 45.5455 194.182C46.3182 194.705 47.3068 195.182 48.5114 195.614C49.7159 196.045 51.1477 196.432 52.8068 196.773L58.5341 198C62.3977 198.818 65.7045 199.898 68.4545 201.239C71.2045 202.58 73.4545 204.159 75.2045 205.977C76.9545 207.773 78.2386 209.795 79.0568 212.045C79.8977 214.295 80.3295 216.75 80.3523 219.409C80.3295 224 79.1818 227.886 76.9091 231.068C74.6364 234.25 71.3864 236.67 67.1591 238.33C62.9545 239.989 57.8977 240.818 51.9886 240.818C45.9205 240.818 40.625 239.92 36.1023 238.125C31.6023 236.33 28.1023 233.568 25.6023 229.841C23.125 226.091 21.875 221.295 21.8523 215.455H39.8523C39.9659 217.591 40.5 219.386 41.4545 220.841C42.4091 222.295 43.75 223.398 45.4773 224.148C47.2273 224.898 49.3068 225.273 51.7159 225.273C53.7386 225.273 55.4318 225.023 56.7955 224.523C58.1591 224.023 59.1932 223.33 59.8977 222.443C60.6023 221.557 60.9659 220.545 60.9886 219.409C60.9659 218.341 60.6136 217.409 59.9318 216.614C59.2727 215.795 58.1818 215.068 56.6591 214.432C55.1364 213.773 53.0795 213.159 50.4886 212.591L43.5341 211.091C37.3523 209.75 32.4773 207.511 28.9091 204.375C25.3636 201.216 23.6023 196.909 23.625 191.455C23.6023 187.023 24.7841 183.148 27.1705 179.83C29.5795 176.489 32.9091 173.886 37.1591 172.023C41.4318 170.159 46.3295 169.227 51.8523 169.227C57.4886 169.227 62.3636 170.17 66.4773 172.057C70.5909 173.943 73.7614 176.602 75.9886 180.034C78.2386 183.443 79.375 187.432 79.3977 192H61.2614ZM113.062 240.955C107.381 240.955 102.517 239.83 98.4716 237.58C94.4261 235.307 91.3239 232.148 89.1648 228.102C87.0057 224.034 85.9261 219.318 85.9261 213.955C85.9261 208.591 87.0057 203.886 89.1648 199.841C91.3239 195.773 94.4261 192.614 98.4716 190.364C102.517 188.091 107.381 186.955 113.062 186.955C118.744 186.955 123.608 188.091 127.653 190.364C131.699 192.614 134.801 195.773 136.96 199.841C139.119 203.886 140.199 208.591 140.199 213.955C140.199 219.318 139.119 224.034 136.96 228.102C134.801 232.148 131.699 235.307 127.653 237.58C123.608 239.83 118.744 240.955 113.062 240.955ZM113.199 227.045C114.79 227.045 116.165 226.511 117.324 225.443C118.483 224.375 119.381 222.852 120.017 220.875C120.653 218.898 120.972 216.545 120.972 213.818C120.972 211.068 120.653 208.716 120.017 206.761C119.381 204.784 118.483 203.261 117.324 202.193C116.165 201.125 114.79 200.591 113.199 200.591C111.517 200.591 110.074 201.125 108.869 202.193C107.665 203.261 106.744 204.784 106.108 206.761C105.472 208.716 105.153 211.068 105.153 213.818C105.153 216.545 105.472 218.898 106.108 220.875C106.744 222.852 107.665 224.375 108.869 225.443C110.074 226.511 111.517 227.045 113.199 227.045ZM181.79 217.091V187.636H200.608V240H182.744V230.045H182.199C181.063 233.386 179.074 236 176.233 237.886C173.392 239.75 170.017 240.682 166.108 240.682C162.449 240.682 159.244 239.841 156.494 238.159C153.767 236.477 151.642 234.159 150.119 231.205C148.619 228.25 147.858 224.864 147.835 221.045V187.636H166.653V217.091C166.676 219.682 167.335 221.716 168.631 223.193C169.949 224.67 171.79 225.409 174.153 225.409C175.722 225.409 177.074 225.08 178.21 224.42C179.369 223.739 180.256 222.784 180.869 221.557C181.506 220.307 181.813 218.818 181.79 217.091ZM229.031 240V170.182H259.168C264.349 170.182 268.884 171.125 272.77 173.011C276.656 174.898 279.679 177.614 281.838 181.159C283.997 184.705 285.077 188.955 285.077 193.909C285.077 198.909 283.963 203.125 281.736 206.557C279.531 209.989 276.429 212.58 272.429 214.33C268.452 216.08 263.804 216.955 258.486 216.955H240.486V202.227H254.668C256.895 202.227 258.793 201.955 260.361 201.409C261.952 200.841 263.168 199.943 264.009 198.716C264.872 197.489 265.304 195.886 265.304 193.909C265.304 191.909 264.872 190.284 264.009 189.034C263.168 187.761 261.952 186.83 260.361 186.239C258.793 185.625 256.895 185.318 254.668 185.318H247.986V240H229.031ZM269.94 207.955L287.395 240H266.804L249.759 207.955H269.94ZM308.02 240.818C304.679 240.818 301.724 240.273 299.156 239.182C296.611 238.068 294.611 236.386 293.156 234.136C291.702 231.886 290.974 229.023 290.974 225.545C290.974 222.682 291.463 220.239 292.44 218.216C293.418 216.17 294.781 214.5 296.531 213.205C298.281 211.909 300.315 210.92 302.634 210.239C304.974 209.557 307.497 209.114 310.202 208.909C313.134 208.682 315.486 208.409 317.259 208.091C319.054 207.75 320.349 207.284 321.145 206.693C321.94 206.08 322.338 205.273 322.338 204.273V204.136C322.338 202.773 321.815 201.727 320.77 201C319.724 200.273 318.384 199.909 316.747 199.909C314.952 199.909 313.486 200.307 312.349 201.102C311.236 201.875 310.565 203.068 310.338 204.682H293.02C293.247 201.5 294.259 198.568 296.054 195.886C297.872 193.182 300.52 191.023 303.997 189.409C307.474 187.773 311.815 186.955 317.02 186.955C320.77 186.955 324.134 187.398 327.111 188.284C330.088 189.148 332.622 190.364 334.713 191.932C336.804 193.477 338.395 195.295 339.486 197.386C340.599 199.455 341.156 201.705 341.156 204.136V240H323.565V232.636H323.156C322.111 234.591 320.838 236.17 319.338 237.375C317.861 238.58 316.168 239.455 314.259 240C312.372 240.545 310.293 240.818 308.02 240.818ZM314.156 228.955C315.588 228.955 316.929 228.659 318.179 228.068C319.452 227.477 320.486 226.625 321.281 225.511C322.077 224.398 322.474 223.045 322.474 221.455V217.091C321.974 217.295 321.44 217.489 320.872 217.67C320.327 217.852 319.736 218.023 319.099 218.182C318.486 218.341 317.827 218.489 317.122 218.625C316.44 218.761 315.724 218.886 314.974 219C313.52 219.227 312.327 219.602 311.395 220.125C310.486 220.625 309.804 221.25 309.349 222C308.918 222.727 308.702 223.545 308.702 224.455C308.702 225.909 309.213 227.023 310.236 227.795C311.259 228.568 312.565 228.955 314.156 228.955ZM350.148 240V187.636H368.966V240H350.148ZM359.557 182.182C357.011 182.182 354.83 181.341 353.011 179.659C351.193 177.977 350.284 175.955 350.284 173.591C350.284 171.227 351.193 169.205 353.011 167.523C354.83 165.841 357.011 165 359.557 165C362.125 165 364.307 165.841 366.102 167.523C367.92 169.205 368.83 171.227 368.83 173.591C368.83 175.955 367.92 177.977 366.102 179.659C364.307 181.341 362.125 182.182 359.557 182.182ZM442.747 193.227C442.452 192.023 441.986 190.966 441.349 190.057C440.713 189.125 439.918 188.341 438.963 187.705C438.031 187.045 436.94 186.557 435.69 186.239C434.463 185.898 433.111 185.727 431.634 185.727C428.452 185.727 425.736 186.489 423.486 188.011C421.259 189.534 419.554 191.727 418.372 194.591C417.213 197.455 416.634 200.909 416.634 204.955C416.634 209.045 417.19 212.545 418.304 215.455C419.418 218.364 421.077 220.591 423.281 222.136C425.486 223.682 428.224 224.455 431.497 224.455C434.384 224.455 436.781 224.034 438.69 223.193C440.622 222.352 442.065 221.159 443.02 219.614C443.974 218.068 444.452 216.25 444.452 214.159L447.724 214.5H431.77V201H462.724V210.682C462.724 217.045 461.372 222.489 458.668 227.011C455.986 231.511 452.281 234.966 447.554 237.375C442.849 239.761 437.452 240.955 431.361 240.955C424.565 240.955 418.599 239.511 413.463 236.625C408.327 233.739 404.315 229.625 401.429 224.284C398.565 218.943 397.134 212.591 397.134 205.227C397.134 199.455 398.009 194.341 399.759 189.886C401.531 185.432 403.986 181.67 407.122 178.602C410.259 175.511 413.884 173.182 417.997 171.614C422.111 170.023 426.52 169.227 431.224 169.227C435.361 169.227 439.202 169.818 442.747 171C446.315 172.159 449.463 173.818 452.19 175.977C454.94 178.114 457.156 180.648 458.838 183.58C460.52 186.511 461.543 189.727 461.906 193.227H442.747ZM497.062 240.955C491.381 240.955 486.517 239.83 482.472 237.58C478.426 235.307 475.324 232.148 473.165 228.102C471.006 224.034 469.926 219.318 469.926 213.955C469.926 208.591 471.006 203.886 473.165 199.841C475.324 195.773 478.426 192.614 482.472 190.364C486.517 188.091 491.381 186.955 497.062 186.955C502.744 186.955 507.608 188.091 511.653 190.364C515.699 192.614 518.801 195.773 520.96 199.841C523.119 203.886 524.199 208.591 524.199 213.955C524.199 219.318 523.119 224.034 520.96 228.102C518.801 232.148 515.699 235.307 511.653 237.58C507.608 239.83 502.744 240.955 497.062 240.955ZM497.199 227.045C498.79 227.045 500.165 226.511 501.324 225.443C502.483 224.375 503.381 222.852 504.017 220.875C504.653 218.898 504.972 216.545 504.972 213.818C504.972 211.068 504.653 208.716 504.017 206.761C503.381 204.784 502.483 203.261 501.324 202.193C500.165 201.125 498.79 200.591 497.199 200.591C495.517 200.591 494.074 201.125 492.869 202.193C491.665 203.261 490.744 204.784 490.108 206.761C489.472 208.716 489.153 211.068 489.153 213.818C489.153 216.545 489.472 218.898 490.108 220.875C490.744 222.852 491.665 224.375 492.869 225.443C494.074 226.511 495.517 227.045 497.199 227.045ZM550.653 210.545V240H531.835V187.636H549.699V197.591H550.244C551.381 194.273 553.381 191.67 556.244 189.784C559.131 187.898 562.494 186.955 566.335 186.955C570.04 186.955 573.256 187.807 575.983 189.511C578.733 191.193 580.858 193.511 582.358 196.466C583.881 199.42 584.631 202.795 584.608 206.591V240H565.79V210.545C565.813 207.955 565.153 205.92 563.812 204.443C562.494 202.966 560.653 202.227 558.29 202.227C556.744 202.227 555.392 202.568 554.233 203.25C553.097 203.909 552.222 204.864 551.608 206.114C550.994 207.341 550.676 208.818 550.653 210.545ZM619.125 240.955C613.443 240.955 608.58 239.83 604.534 237.58C600.489 235.307 597.386 232.148 595.227 228.102C593.068 224.034 591.989 219.318 591.989 213.955C591.989 208.591 593.068 203.886 595.227 199.841C597.386 195.773 600.489 192.614 604.534 190.364C608.58 188.091 613.443 186.955 619.125 186.955C624.261 186.955 628.705 187.886 632.455 189.75C636.227 191.591 639.148 194.205 641.216 197.591C643.284 200.955 644.33 204.909 644.352 209.455H626.898C626.648 206.705 625.852 204.614 624.511 203.182C623.193 201.727 621.489 201 619.398 201C617.761 201 616.33 201.477 615.102 202.432C613.875 203.364 612.92 204.784 612.239 206.693C611.557 208.58 611.216 210.955 611.216 213.818C611.216 216.682 611.557 219.068 612.239 220.977C612.92 222.864 613.875 224.284 615.102 225.239C616.33 226.17 617.761 226.636 619.398 226.636C620.784 226.636 622.011 226.318 623.08 225.682C624.148 225.023 625.011 224.068 625.67 222.818C626.352 221.545 626.761 220 626.898 218.182H644.352C644.284 222.795 643.227 226.818 641.182 230.25C639.136 233.659 636.239 236.295 632.489 238.159C628.761 240.023 624.307 240.955 619.125 240.955ZM615.989 239.727H622.67L622.125 242.864C624.83 243.273 626.932 244.227 628.432 245.727C629.932 247.227 630.693 249.091 630.716 251.318C630.761 255 628.955 257.898 625.295 260.011C621.659 262.125 616.648 263.182 610.261 263.182V255.955C613.625 255.955 616.193 255.591 617.966 254.864C619.739 254.159 620.67 253.114 620.761 251.727C620.852 250.455 620.352 249.398 619.261 248.557C618.193 247.739 616.557 247.159 614.352 246.818L615.989 239.727ZM666.707 240.818C663.366 240.818 660.412 240.273 657.844 239.182C655.298 238.068 653.298 236.386 651.844 234.136C650.389 231.886 649.662 229.023 649.662 225.545C649.662 222.682 650.151 220.239 651.128 218.216C652.105 216.17 653.469 214.5 655.219 213.205C656.969 211.909 659.003 210.92 661.321 210.239C663.662 209.557 666.185 209.114 668.889 208.909C671.821 208.682 674.173 208.409 675.946 208.091C677.741 207.75 679.037 207.284 679.832 206.693C680.628 206.08 681.026 205.273 681.026 204.273V204.136C681.026 202.773 680.503 201.727 679.457 201C678.412 200.273 677.071 199.909 675.435 199.909C673.639 199.909 672.173 200.307 671.037 201.102C669.923 201.875 669.253 203.068 669.026 204.682H651.707C651.935 201.5 652.946 198.568 654.741 195.886C656.56 193.182 659.207 191.023 662.685 189.409C666.162 187.773 670.503 186.955 675.707 186.955C679.457 186.955 682.821 187.398 685.798 188.284C688.776 189.148 691.31 190.364 693.401 191.932C695.491 193.477 697.082 195.295 698.173 197.386C699.287 199.455 699.844 201.705 699.844 204.136V240H682.253V232.636H681.844C680.798 234.591 679.526 236.17 678.026 237.375C676.548 238.58 674.855 239.455 672.946 240C671.06 240.545 668.98 240.818 666.707 240.818ZM672.844 228.955C674.276 228.955 675.616 228.659 676.866 228.068C678.139 227.477 679.173 226.625 679.969 225.511C680.764 224.398 681.162 223.045 681.162 221.455V217.091C680.662 217.295 680.128 217.489 679.56 217.67C679.014 217.852 678.423 218.023 677.787 218.182C677.173 218.341 676.514 218.489 675.81 218.625C675.128 218.761 674.412 218.886 673.662 219C672.207 219.227 671.014 219.602 670.082 220.125C669.173 220.625 668.491 221.25 668.037 222C667.605 222.727 667.389 223.545 667.389 224.455C667.389 225.909 667.901 227.023 668.923 227.795C669.946 228.568 671.253 228.955 672.844 228.955ZM727.653 170.182V240H708.835V170.182H727.653ZM790.014 187.636L772.423 240H750.605L733.014 187.636H752.787L761.241 222.273H761.787L770.241 187.636H790.014ZM818.864 240.955C813.273 240.955 808.455 239.886 804.409 237.75C800.386 235.591 797.284 232.5 795.102 228.477C792.943 224.432 791.864 219.591 791.864 213.955C791.864 208.545 792.955 203.818 795.136 199.773C797.318 195.727 800.398 192.58 804.375 190.33C808.352 188.08 813.045 186.955 818.455 186.955C822.409 186.955 825.989 187.568 829.193 188.795C832.398 190.023 835.136 191.807 837.409 194.148C839.682 196.466 841.432 199.284 842.659 202.602C843.886 205.92 844.5 209.659 844.5 213.818V218.182H797.727V207.818H827.182C827.159 206.318 826.773 205 826.023 203.864C825.295 202.705 824.307 201.807 823.057 201.17C821.83 200.511 820.432 200.182 818.864 200.182C817.341 200.182 815.943 200.511 814.67 201.17C813.398 201.807 812.375 202.693 811.602 203.83C810.852 204.966 810.455 206.295 810.409 207.818V219C810.409 220.682 810.761 222.182 811.466 223.5C812.17 224.818 813.182 225.852 814.5 226.602C815.818 227.352 817.409 227.727 819.273 227.727C820.568 227.727 821.75 227.545 822.818 227.182C823.909 226.818 824.841 226.295 825.614 225.614C826.386 224.909 826.955 224.068 827.318 223.091H844.5C843.909 226.727 842.511 229.886 840.307 232.568C838.102 235.227 835.182 237.295 831.545 238.773C827.932 240.227 823.705 240.955 818.864 240.955ZM900.043 204.682H882.724C882.634 203.614 882.259 202.693 881.599 201.92C880.94 201.148 880.088 200.557 879.043 200.148C878.02 199.716 876.884 199.5 875.634 199.5C874.02 199.5 872.634 199.795 871.474 200.386C870.315 200.977 869.747 201.818 869.77 202.909C869.747 203.682 870.077 204.398 870.759 205.057C871.463 205.716 872.815 206.227 874.815 206.591L885.452 208.5C890.815 209.477 894.804 211.125 897.418 213.443C900.054 215.739 901.384 218.818 901.406 222.682C901.384 226.409 900.27 229.648 898.065 232.398C895.884 235.125 892.895 237.239 889.099 238.739C885.327 240.216 881.02 240.955 876.179 240.955C868.179 240.955 861.918 239.318 857.395 236.045C852.895 232.773 850.384 228.455 849.861 223.091H868.543C868.793 224.75 869.611 226.034 870.997 226.943C872.406 227.83 874.179 228.273 876.315 228.273C878.043 228.273 879.463 227.977 880.577 227.386C881.713 226.795 882.293 225.955 882.315 224.864C882.293 223.864 881.793 223.068 880.815 222.477C879.861 221.886 878.361 221.409 876.315 221.045L867.043 219.409C861.702 218.477 857.702 216.705 855.043 214.091C852.384 211.477 851.065 208.114 851.088 204C851.065 200.364 852.02 197.284 853.952 194.761C855.906 192.216 858.69 190.284 862.304 188.966C865.94 187.625 870.247 186.955 875.224 186.955C882.793 186.955 888.759 188.523 893.122 191.659C897.509 194.795 899.815 199.136 900.043 204.682Z" fill="white"/>
</g>
<g filter="url(#filter1_d_32_5)">
<path d="M194.182 299.409C192.631 299.409 191.361 298.966 190.372 298.08C189.384 297.185 188.706 295.97 188.339 294.436C187.982 292.902 187.96 291.168 188.276 289.233C188.599 287.307 189.2 285.577 190.078 284.043C190.956 282.509 192.034 281.294 193.312 280.399C194.599 279.504 196.006 279.057 197.531 279.057C198.58 279.057 199.504 279.274 200.305 279.709C201.115 280.135 201.776 280.749 202.287 281.55C202.807 282.342 203.148 283.284 203.31 284.375H203.412L205.33 272.818H206.148L201.801 299H200.983L201.801 294.091H201.699C201.162 295.173 200.506 296.115 199.73 296.916C198.963 297.709 198.107 298.322 197.161 298.757C196.223 299.192 195.23 299.409 194.182 299.409ZM194.182 298.591C195.571 298.591 196.849 298.182 198.017 297.364C199.185 296.537 200.165 295.42 200.957 294.014C201.759 292.599 202.304 291.006 202.594 289.233C202.892 287.46 202.892 285.871 202.594 284.464C202.304 283.05 201.733 281.933 200.881 281.115C200.028 280.288 198.912 279.875 197.531 279.875C196.151 279.875 194.876 280.288 193.709 281.115C192.541 281.933 191.553 283.05 190.743 284.464C189.942 285.871 189.392 287.46 189.094 289.233C188.804 291.006 188.804 292.599 189.094 294.014C189.392 295.42 189.967 296.537 190.82 297.364C191.672 298.182 192.793 298.591 194.182 298.591ZM216.669 299.409C214.947 299.409 213.52 298.962 212.386 298.067C211.253 297.172 210.46 295.957 210.009 294.423C209.557 292.889 209.493 291.159 209.817 289.233C210.141 287.307 210.784 285.577 211.747 284.043C212.71 282.509 213.878 281.294 215.25 280.399C216.622 279.504 218.084 279.057 219.635 279.057C220.777 279.057 221.791 279.304 222.678 279.798C223.572 280.284 224.31 280.957 224.889 281.818C225.477 282.67 225.882 283.659 226.104 284.784C226.325 285.901 226.334 287.094 226.129 288.364L225.976 289.182H210.226L210.379 288.364H225.311C225.567 286.795 225.486 285.372 225.068 284.094C224.659 282.807 223.982 281.784 223.036 281.026C222.098 280.259 220.964 279.875 219.635 279.875C218.288 279.875 216.993 280.276 215.749 281.077C214.504 281.878 213.43 282.969 212.527 284.349C211.624 285.73 211.01 287.29 210.686 289.028L210.635 289.08C210.345 290.801 210.375 292.382 210.724 293.822C211.074 295.263 211.747 296.418 212.744 297.287C213.741 298.156 215.067 298.591 216.72 298.591C217.913 298.591 218.962 298.378 219.865 297.952C220.777 297.526 221.536 297.036 222.141 296.482C222.754 295.928 223.214 295.455 223.521 295.062L224.084 295.523C223.726 296.017 223.21 296.567 222.537 297.172C221.864 297.777 221.037 298.301 220.057 298.744C219.077 299.188 217.947 299.409 216.669 299.409ZM244.452 283.506L243.634 283.659C243.498 282.807 243.242 282.104 242.867 281.55C242.492 280.987 241.993 280.57 241.371 280.297C240.757 280.016 240.012 279.875 239.134 279.875C237.532 279.875 236.172 280.288 235.056 281.115C233.939 281.942 233.27 283.011 233.049 284.324C232.887 285.338 233.07 286.182 233.598 286.855C234.135 287.528 235.043 288.031 236.321 288.364L239.287 289.131C240.668 289.489 241.657 290.111 242.253 290.997C242.858 291.875 243.063 292.923 242.867 294.142C242.696 295.207 242.27 296.136 241.588 296.929C240.907 297.713 240.042 298.322 238.993 298.757C237.953 299.192 236.79 299.409 235.503 299.409C233.748 299.409 232.38 298.979 231.4 298.118C230.428 297.257 229.904 296.034 229.827 294.449L230.645 294.347C230.696 295.727 231.135 296.78 231.962 297.504C232.789 298.229 233.969 298.591 235.503 298.591C237.242 298.591 238.721 298.161 239.939 297.3C241.158 296.43 241.878 295.31 242.1 293.938C242.262 292.932 242.083 292.092 241.563 291.419C241.043 290.746 240.182 290.256 238.98 289.949L236.066 289.182C234.608 288.798 233.551 288.168 232.895 287.29C232.248 286.412 232.026 285.355 232.23 284.119C232.401 283.105 232.801 282.219 233.432 281.46C234.063 280.702 234.864 280.114 235.836 279.696C236.816 279.27 237.898 279.057 239.083 279.057C240.625 279.057 241.848 279.436 242.752 280.195C243.655 280.945 244.222 282.048 244.452 283.506ZM255.2 299.409C253.479 299.409 252.051 298.962 250.918 298.067C249.784 297.172 248.991 295.957 248.54 294.423C248.088 292.889 248.024 291.159 248.348 289.233C248.672 287.307 249.315 285.577 250.278 284.043C251.241 282.509 252.409 281.294 253.781 280.399C255.153 279.504 256.615 279.057 258.166 279.057C259.308 279.057 260.322 279.304 261.209 279.798C262.104 280.284 262.841 280.957 263.42 281.818C264.009 282.67 264.413 283.659 264.635 284.784C264.857 285.901 264.865 287.094 264.661 288.364L264.507 289.182H248.757L248.911 288.364H263.842C264.098 286.795 264.017 285.372 263.599 284.094C263.19 282.807 262.513 281.784 261.567 281.026C260.629 280.259 259.496 279.875 258.166 279.875C256.82 279.875 255.524 280.276 254.28 281.077C253.036 281.878 251.962 282.969 251.058 284.349C250.155 285.73 249.541 287.29 249.217 289.028L249.166 289.08C248.876 290.801 248.906 292.382 249.256 293.822C249.605 295.263 250.278 296.418 251.276 297.287C252.273 298.156 253.598 298.591 255.251 298.591C256.445 298.591 257.493 298.378 258.396 297.952C259.308 297.526 260.067 297.036 260.672 296.482C261.286 295.928 261.746 295.455 262.053 295.062L262.615 295.523C262.257 296.017 261.741 296.567 261.068 297.172C260.395 297.777 259.568 298.301 258.588 298.744C257.608 299.188 256.479 299.409 255.2 299.409ZM271.682 285.807L269.483 299H268.665L271.938 279.364H272.756L272.245 282.483H272.347C272.961 281.46 273.847 280.642 275.006 280.028C276.174 279.415 277.435 279.108 278.79 279.108C280.103 279.108 281.215 279.393 282.127 279.964C283.039 280.536 283.695 281.324 284.096 282.33C284.496 283.335 284.586 284.494 284.364 285.807L282.165 299H281.347L283.546 285.807C283.827 284.068 283.529 282.653 282.651 281.562C281.782 280.472 280.478 279.926 278.739 279.926C277.58 279.926 276.498 280.178 275.492 280.68C274.495 281.183 273.655 281.878 272.973 282.764C272.3 283.651 271.87 284.665 271.682 285.807ZM305.196 279.364L294.917 299H293.792L290.059 279.364H290.877L294.431 297.977H294.534L304.275 279.364H305.196ZM313.483 299.409C311.932 299.409 310.611 298.962 309.52 298.067C308.438 297.172 307.662 295.949 307.193 294.398C306.733 292.847 306.665 291.091 306.989 289.131C307.312 287.222 307.952 285.509 308.906 283.991C309.869 282.466 311.028 281.264 312.384 280.386C313.747 279.5 315.188 279.057 316.705 279.057C318.273 279.057 319.598 279.509 320.68 280.412C321.771 281.315 322.547 282.543 323.007 284.094C323.476 285.645 323.557 287.392 323.25 289.335C322.926 291.244 322.283 292.962 321.32 294.487C320.357 296.004 319.193 297.206 317.83 298.092C316.466 298.97 315.017 299.409 313.483 299.409ZM313.483 298.591C314.898 298.591 316.232 298.182 317.484 297.364C318.737 296.537 319.803 295.412 320.68 293.989C321.558 292.557 322.142 290.937 322.432 289.131C322.722 287.375 322.666 285.798 322.266 284.401C321.865 283.003 321.188 281.899 320.233 281.089C319.278 280.28 318.119 279.875 316.756 279.875C315.358 279.875 314.033 280.293 312.78 281.128C311.527 281.955 310.457 283.084 309.571 284.516C308.685 285.939 308.097 287.545 307.807 289.335C307.5 291.091 307.547 292.668 307.947 294.065C308.357 295.463 309.038 296.567 309.993 297.376C310.956 298.186 312.119 298.591 313.483 298.591ZM332.541 272.818L328.194 299H327.376L331.723 272.818H332.541ZM351.918 279.364L341.64 299H340.515L336.782 279.364H337.6L341.154 297.977H341.256L350.998 279.364H351.918ZM360.564 299.409C358.842 299.409 357.414 298.962 356.281 298.067C355.147 297.172 354.355 295.957 353.903 294.423C353.451 292.889 353.387 291.159 353.711 289.233C354.035 287.307 354.679 285.577 355.642 284.043C356.605 282.509 357.772 281.294 359.145 280.399C360.517 279.504 361.978 279.057 363.529 279.057C364.672 279.057 365.686 279.304 366.572 279.798C367.467 280.284 368.204 280.957 368.784 281.818C369.372 282.67 369.777 283.659 369.998 284.784C370.22 285.901 370.228 287.094 370.024 288.364L369.87 289.182H354.12L354.274 288.364H369.206C369.461 286.795 369.38 285.372 368.963 284.094C368.554 282.807 367.876 281.784 366.93 281.026C365.993 280.259 364.859 279.875 363.529 279.875C362.183 279.875 360.887 280.276 359.643 281.077C358.399 281.878 357.325 282.969 356.422 284.349C355.518 285.73 354.904 287.29 354.581 289.028L354.529 289.08C354.24 290.801 354.27 292.382 354.619 293.822C354.968 295.263 355.642 296.418 356.639 297.287C357.636 298.156 358.961 298.591 360.615 298.591C361.808 298.591 362.856 298.378 363.76 297.952C364.672 297.526 365.43 297.036 366.035 296.482C366.649 295.928 367.109 295.455 367.416 295.062L367.978 295.523C367.62 296.017 367.105 296.567 366.431 297.172C365.758 297.777 364.931 298.301 363.951 298.744C362.971 299.188 361.842 299.409 360.564 299.409ZM380.369 299.409C378.818 299.409 377.548 298.966 376.56 298.08C375.571 297.185 374.893 295.97 374.527 294.436C374.169 292.902 374.148 291.168 374.463 289.233C374.787 287.307 375.388 285.577 376.266 284.043C377.143 282.509 378.222 281.294 379.5 280.399C380.787 279.504 382.193 279.057 383.719 279.057C384.767 279.057 385.692 279.274 386.493 279.709C387.303 280.135 387.963 280.749 388.474 281.55C388.994 282.342 389.335 283.284 389.497 284.375H389.599L391.517 272.818H392.335L387.989 299H387.17L387.989 294.091H387.886C387.349 295.173 386.693 296.115 385.918 296.916C385.151 297.709 384.294 298.322 383.348 298.757C382.411 299.192 381.418 299.409 380.369 299.409ZM380.369 298.591C381.759 298.591 383.037 298.182 384.205 297.364C385.372 296.537 386.352 295.42 387.145 294.014C387.946 292.599 388.491 291.006 388.781 289.233C389.08 287.46 389.08 285.871 388.781 284.464C388.491 283.05 387.92 281.933 387.068 281.115C386.216 280.288 385.099 279.875 383.719 279.875C382.338 279.875 381.064 280.288 379.896 281.115C378.729 281.933 377.74 283.05 376.93 284.464C376.129 285.871 375.58 287.46 375.281 289.233C374.991 291.006 374.991 292.599 375.281 294.014C375.58 295.42 376.155 296.537 377.007 297.364C377.859 298.182 378.98 298.591 380.369 298.591ZM402.499 299.409C400.947 299.409 399.626 298.962 398.536 298.067C397.453 297.172 396.678 295.949 396.209 294.398C395.749 292.847 395.68 291.091 396.004 289.131C396.328 287.222 396.967 285.509 397.922 283.991C398.885 282.466 400.044 281.264 401.399 280.386C402.763 279.5 404.203 279.057 405.72 279.057C407.288 279.057 408.614 279.509 409.696 280.412C410.787 281.315 411.563 282.543 412.023 284.094C412.491 285.645 412.572 287.392 412.266 289.335C411.942 291.244 411.298 292.962 410.335 294.487C409.372 296.004 408.209 297.206 406.845 298.092C405.482 298.97 404.033 299.409 402.499 299.409ZM402.499 298.591C403.913 298.591 405.247 298.182 406.5 297.364C407.753 296.537 408.818 295.412 409.696 293.989C410.574 292.557 411.158 290.937 411.447 289.131C411.737 287.375 411.682 285.798 411.281 284.401C410.881 283.003 410.203 281.899 409.249 281.089C408.294 280.28 407.135 279.875 405.771 279.875C404.374 279.875 403.048 280.293 401.795 281.128C400.543 281.955 399.473 283.084 398.587 284.516C397.7 285.939 397.112 287.545 396.822 289.335C396.516 291.091 396.563 292.668 396.963 294.065C397.372 295.463 398.054 296.567 399.009 297.376C399.972 298.186 401.135 298.591 402.499 298.591ZM416.392 299L419.664 279.364H420.483L419.971 282.483H420.074C420.687 281.46 421.574 280.642 422.733 280.028C423.9 279.415 425.162 279.108 426.517 279.108C426.619 279.108 426.687 279.108 426.721 279.108C426.755 279.108 426.824 279.108 426.926 279.108L426.772 279.926C426.67 279.926 426.602 279.926 426.568 279.926C426.534 279.926 426.466 279.926 426.363 279.926C425.204 279.926 424.13 280.178 423.142 280.68C422.162 281.183 421.339 281.878 420.674 282.764C420.018 283.651 419.596 284.665 419.409 285.807L417.21 299H416.392ZM438.837 299L443.184 272.818H457.246L457.093 273.636H443.849L441.906 285.5H453.923L453.769 286.318H441.752L439.656 299H438.837ZM459.071 299L462.344 279.364H463.162L462.651 282.483H462.753C463.367 281.46 464.253 280.642 465.412 280.028C466.58 279.415 467.841 279.108 469.196 279.108C469.299 279.108 469.367 279.108 469.401 279.108C469.435 279.108 469.503 279.108 469.605 279.108L469.452 279.926C469.35 279.926 469.282 279.926 469.248 279.926C469.213 279.926 469.145 279.926 469.043 279.926C467.884 279.926 466.81 280.178 465.821 280.68C464.841 281.183 464.019 281.878 463.354 282.764C462.698 283.651 462.276 284.665 462.088 285.807L459.89 299H459.071ZM477.135 299.409C475.584 299.409 474.263 298.962 473.172 298.067C472.09 297.172 471.314 295.949 470.846 294.398C470.385 292.847 470.317 291.091 470.641 289.131C470.965 287.222 471.604 285.509 472.559 283.991C473.522 282.466 474.681 281.264 476.036 280.386C477.4 279.5 478.84 279.057 480.357 279.057C481.925 279.057 483.25 279.509 484.333 280.412C485.424 281.315 486.199 282.543 486.659 284.094C487.128 285.645 487.209 287.392 486.902 289.335C486.578 291.244 485.935 292.962 484.972 294.487C484.009 296.004 482.846 297.206 481.482 298.092C480.118 298.97 478.669 299.409 477.135 299.409ZM477.135 298.591C478.55 298.591 479.884 298.182 481.137 297.364C482.39 296.537 483.455 295.412 484.333 293.989C485.211 292.557 485.794 290.937 486.084 289.131C486.374 287.375 486.319 285.798 485.918 284.401C485.517 283.003 484.84 281.899 483.885 281.089C482.931 280.28 481.772 279.875 480.408 279.875C479.01 279.875 477.685 280.293 476.432 281.128C475.179 281.955 474.11 283.084 473.223 284.516C472.337 285.939 471.749 287.545 471.459 289.335C471.152 291.091 471.199 292.668 471.6 294.065C472.009 295.463 472.691 296.567 473.645 297.376C474.608 298.186 475.772 298.591 477.135 298.591ZM494.045 285.807L491.847 299H491.028L494.301 279.364H495.119L494.608 282.483H494.71C495.324 281.46 496.21 280.642 497.369 280.028C498.537 279.415 499.798 279.108 501.153 279.108C502.466 279.108 503.578 279.393 504.49 279.964C505.402 280.536 506.058 281.324 506.459 282.33C506.859 283.335 506.949 284.494 506.727 285.807L504.528 299H503.71L505.909 285.807C506.19 284.068 505.892 282.653 505.014 281.562C504.145 280.472 502.841 279.926 501.102 279.926C499.943 279.926 498.861 280.178 497.855 280.68C496.858 281.183 496.018 281.878 495.337 282.764C494.663 283.651 494.233 284.665 494.045 285.807ZM520.898 279.364L520.745 280.182H512.972L513.126 279.364H520.898ZM516.756 274.659H517.575L514.251 294.858C514.114 295.625 514.17 296.286 514.417 296.839C514.664 297.385 515.043 297.807 515.555 298.105C516.066 298.395 516.654 298.54 517.319 298.54C517.549 298.54 517.771 298.518 517.984 298.476C518.205 298.425 518.444 298.361 518.7 298.284L518.802 299.051C518.521 299.153 518.252 299.23 517.996 299.281C517.749 299.332 517.472 299.358 517.165 299.358C516.364 299.358 515.653 299.175 515.031 298.808C514.417 298.442 513.957 297.922 513.65 297.249C513.352 296.575 513.279 295.778 513.433 294.858L516.756 274.659ZM534.744 299L539.09 272.818H553.05L552.897 273.636H539.755L537.812 285.5H550.187L550.033 286.318H537.658L535.715 298.182H549.215L549.062 299H534.744ZM558.17 285.807L555.972 299H555.153L558.426 279.364H559.244L558.733 282.483H558.835C559.449 281.46 560.335 280.642 561.494 280.028C562.662 279.415 563.923 279.108 565.278 279.108C566.591 279.108 567.703 279.393 568.615 279.964C569.527 280.536 570.183 281.324 570.584 282.33C570.984 283.335 571.074 284.494 570.852 285.807L568.653 299H567.835L570.034 285.807C570.315 284.068 570.017 282.653 569.139 281.562C568.27 280.472 566.966 279.926 565.227 279.926C564.068 279.926 562.986 280.178 561.98 280.68C560.983 281.183 560.143 281.878 559.462 282.764C558.788 283.651 558.358 284.665 558.17 285.807ZM581.955 299.409C580.404 299.409 579.134 298.966 578.146 298.08C577.157 297.185 576.479 295.97 576.113 294.436C575.755 292.902 575.734 291.168 576.049 289.233C576.373 287.307 576.974 285.577 577.852 284.043C578.729 282.509 579.808 281.294 581.086 280.399C582.373 279.504 583.779 279.057 585.305 279.057C586.353 279.057 587.278 279.274 588.079 279.709C588.888 280.135 589.549 280.749 590.06 281.55C590.58 282.342 590.921 283.284 591.083 284.375H591.185L593.103 272.818H593.921L589.575 299H588.756L589.575 294.091H589.472C588.935 295.173 588.279 296.115 587.504 296.916C586.737 297.709 585.88 298.322 584.934 298.757C583.996 299.192 583.004 299.409 581.955 299.409ZM581.955 298.591C583.344 298.591 584.623 298.182 585.79 297.364C586.958 296.537 587.938 295.42 588.731 294.014C589.532 292.599 590.077 291.006 590.367 289.233C590.665 287.46 590.665 285.871 590.367 284.464C590.077 283.05 589.506 281.933 588.654 281.115C587.802 280.288 586.685 279.875 585.305 279.875C583.924 279.875 582.65 280.288 581.482 281.115C580.315 281.933 579.326 283.05 578.516 284.464C577.715 285.871 577.165 287.46 576.867 289.233C576.577 291.006 576.577 292.599 576.867 294.014C577.165 295.42 577.741 296.537 578.593 297.364C579.445 298.182 580.566 298.591 581.955 298.591ZM614.849 264.381L607.715 307.438H606.897L614.031 264.381H614.849ZM627.802 299L632.149 272.818H639.819C641.285 272.818 642.529 273.146 643.552 273.803C644.575 274.45 645.312 275.354 645.764 276.513C646.216 277.663 646.314 278.989 646.058 280.489C645.819 281.972 645.282 283.288 644.447 284.439C643.612 285.581 642.572 286.48 641.328 287.136C640.083 287.784 638.728 288.108 637.262 288.108H630.001L630.154 287.29H637.416C638.728 287.29 639.934 287 641.034 286.42C642.142 285.841 643.062 285.04 643.795 284.017C644.537 282.994 645.018 281.818 645.24 280.489C645.461 279.142 645.372 277.953 644.971 276.922C644.571 275.891 643.914 275.085 643.002 274.506C642.091 273.926 640.978 273.636 639.666 273.636H632.814L628.62 299H627.802ZM649.021 299L652.293 279.364H653.112L652.6 282.483H652.702C653.316 281.46 654.202 280.642 655.362 280.028C656.529 279.415 657.79 279.108 659.146 279.108C659.248 279.108 659.316 279.108 659.35 279.108C659.384 279.108 659.452 279.108 659.555 279.108L659.401 279.926C659.299 279.926 659.231 279.926 659.197 279.926C659.163 279.926 659.094 279.926 658.992 279.926C657.833 279.926 656.759 280.178 655.771 280.68C654.79 281.183 653.968 281.878 653.303 282.764C652.647 283.651 652.225 284.665 652.038 285.807L649.839 299H649.021ZM667.085 299.409C665.533 299.409 664.212 298.962 663.121 298.067C662.039 297.172 661.263 295.949 660.795 294.398C660.335 292.847 660.266 291.091 660.59 289.131C660.914 287.222 661.553 285.509 662.508 283.991C663.471 282.466 664.63 281.264 665.985 280.386C667.349 279.5 668.789 279.057 670.306 279.057C671.874 279.057 673.2 279.509 674.282 280.412C675.373 281.315 676.148 282.543 676.609 284.094C677.077 285.645 677.158 287.392 676.852 289.335C676.528 291.244 675.884 292.962 674.921 294.487C673.958 296.004 672.795 297.206 671.431 298.092C670.067 298.97 668.619 299.409 667.085 299.409ZM667.085 298.591C668.499 298.591 669.833 298.182 671.086 297.364C672.339 296.537 673.404 295.412 674.282 293.989C675.16 292.557 675.744 290.937 676.033 289.131C676.323 287.375 676.268 285.798 675.867 284.401C675.467 283.003 674.789 281.899 673.835 281.089C672.88 280.28 671.721 279.875 670.357 279.875C668.96 279.875 667.634 280.293 666.381 281.128C665.129 281.955 664.059 283.084 663.173 284.516C662.286 285.939 661.698 287.545 661.408 289.335C661.102 291.091 661.148 292.668 661.549 294.065C661.958 295.463 662.64 296.567 663.594 297.376C664.558 298.186 665.721 298.591 667.085 298.591ZM686.398 306.773C685.307 306.773 684.319 306.624 683.432 306.325C682.546 306.036 681.809 305.597 681.221 305.009C680.632 304.429 680.245 303.705 680.057 302.835L680.824 302.58C680.995 303.347 681.331 303.977 681.834 304.472C682.337 304.974 682.976 305.345 683.752 305.584C684.527 305.831 685.409 305.955 686.398 305.955C688.444 305.955 690.144 305.413 691.499 304.331C692.854 303.249 693.711 301.608 694.069 299.409L694.938 294.091H694.836C694.324 295.182 693.668 296.094 692.867 296.827C692.074 297.551 691.201 298.097 690.246 298.463C689.3 298.821 688.341 299 687.37 299C685.836 299 684.57 298.587 683.573 297.76C682.576 296.933 681.89 295.787 681.515 294.321C681.14 292.855 681.114 291.159 681.438 289.233C681.762 287.29 682.358 285.551 683.228 284.017C684.097 282.483 685.171 281.273 686.449 280.386C687.728 279.5 689.142 279.057 690.694 279.057C691.75 279.057 692.675 279.274 693.468 279.709C694.269 280.135 694.921 280.749 695.424 281.55C695.935 282.342 696.284 283.284 696.472 284.375H696.574L697.392 279.364H698.211L694.887 299.409C694.614 301.028 694.098 302.384 693.34 303.474C692.581 304.565 691.614 305.388 690.438 305.942C689.262 306.496 687.915 306.773 686.398 306.773ZM687.37 298.182C688.733 298.182 689.99 297.82 691.141 297.095C692.3 296.371 693.28 295.339 694.081 294.001C694.891 292.663 695.449 291.074 695.756 289.233C696.046 287.46 696.042 285.871 695.743 284.464C695.453 283.05 694.878 281.933 694.017 281.115C693.165 280.288 692.04 279.875 690.642 279.875C689.262 279.875 687.988 280.288 686.82 281.115C685.661 281.933 684.681 283.05 683.88 284.464C683.087 285.871 682.546 287.46 682.256 289.233C681.966 291.006 681.971 292.565 682.269 293.912C682.576 295.25 683.155 296.298 684.007 297.057C684.868 297.807 685.989 298.182 687.37 298.182ZM702.001 299L705.274 279.364H706.092L705.581 282.483H705.683C706.297 281.46 707.183 280.642 708.342 280.028C709.51 279.415 710.771 279.108 712.126 279.108C712.228 279.108 712.297 279.108 712.331 279.108C712.365 279.108 712.433 279.108 712.535 279.108L712.382 279.926C712.279 279.926 712.211 279.926 712.177 279.926C712.143 279.926 712.075 279.926 711.973 279.926C710.814 279.926 709.74 280.178 708.751 280.68C707.771 281.183 706.949 281.878 706.284 282.764C705.627 283.651 705.206 284.665 705.018 285.807L702.819 299H702.001ZM718.566 299.409C717.492 299.409 716.538 299.188 715.702 298.744C714.876 298.301 714.254 297.653 713.836 296.801C713.427 295.949 713.316 294.909 713.504 293.682C713.623 293.017 713.836 292.395 714.143 291.815C714.458 291.227 714.923 290.695 715.536 290.217C716.158 289.74 716.981 289.331 718.004 288.99C719.026 288.649 720.305 288.389 721.839 288.21C722.759 288.108 723.633 287.989 724.46 287.852C725.286 287.716 725.972 287.511 726.518 287.239C727.063 286.966 727.379 286.574 727.464 286.062L727.668 284.886C727.924 283.378 727.643 282.168 726.825 281.256C726.006 280.335 724.754 279.875 723.066 279.875C721.685 279.875 720.403 280.186 719.218 280.808C718.042 281.43 717.16 282.278 716.572 283.352L715.856 283.045C716.299 282.227 716.887 281.52 717.62 280.923C718.362 280.327 719.197 279.866 720.126 279.543C721.063 279.219 722.043 279.057 723.066 279.057C724.063 279.057 724.933 279.206 725.674 279.504C726.415 279.794 727.016 280.203 727.477 280.732C727.945 281.251 728.265 281.865 728.435 282.572C728.614 283.28 728.631 284.051 728.487 284.886L726.134 299H725.316L725.981 295.011H725.879C725.333 295.898 724.677 296.673 723.91 297.338C723.151 297.994 722.316 298.506 721.404 298.872C720.501 299.23 719.555 299.409 718.566 299.409ZM718.566 298.591C719.81 298.591 721.004 298.259 722.146 297.594C723.296 296.92 724.276 295.987 725.086 294.794C725.904 293.592 726.441 292.199 726.697 290.614L727.208 287.648C726.944 287.827 726.629 287.984 726.262 288.121C725.904 288.257 725.504 288.381 725.06 288.491C724.626 288.594 724.153 288.683 723.641 288.76C723.138 288.837 722.606 288.909 722.043 288.977C720.254 289.182 718.822 289.493 717.748 289.911C716.674 290.328 715.873 290.852 715.344 291.483C714.816 292.114 714.475 292.847 714.322 293.682C714.092 295.165 714.377 296.354 715.178 297.249C715.979 298.143 717.109 298.591 718.566 298.591ZM733.185 299L736.457 279.364H737.276L736.764 282.278H736.866C737.403 281.332 738.183 280.57 739.206 279.99C740.229 279.402 741.392 279.108 742.696 279.108C744.179 279.108 745.295 279.474 746.045 280.207C746.795 280.94 747.247 281.92 747.401 283.148H747.503C748.014 281.92 748.828 280.94 749.945 280.207C751.061 279.474 752.361 279.108 753.844 279.108C755.812 279.108 757.163 279.734 757.896 280.987C758.629 282.232 758.83 283.838 758.497 285.807L756.298 299H755.48L757.679 285.807C757.96 284.068 757.815 282.653 757.244 281.562C756.682 280.472 755.531 279.926 753.793 279.926C752.054 279.926 750.614 280.48 749.472 281.588C748.338 282.687 747.631 284.094 747.349 285.807L745.151 299H744.332L746.531 285.807C746.812 284.068 746.668 282.653 746.097 281.562C745.534 280.472 744.384 279.926 742.645 279.926C741.486 279.926 740.455 280.178 739.551 280.68C738.656 281.183 737.919 281.878 737.339 282.764C736.768 283.651 736.389 284.665 736.202 285.807L734.003 299H733.185ZM768.101 299.409C767.027 299.409 766.073 299.188 765.238 298.744C764.411 298.301 763.789 297.653 763.371 296.801C762.962 295.949 762.851 294.909 763.039 293.682C763.158 293.017 763.371 292.395 763.678 291.815C763.993 291.227 764.458 290.695 765.071 290.217C765.694 289.74 766.516 289.331 767.539 288.99C768.561 288.649 769.84 288.389 771.374 288.21C772.294 288.108 773.168 287.989 773.995 287.852C774.821 287.716 775.507 287.511 776.053 287.239C776.598 286.966 776.914 286.574 776.999 286.062L777.203 284.886C777.459 283.378 777.178 282.168 776.36 281.256C775.542 280.335 774.289 279.875 772.601 279.875C771.221 279.875 769.938 280.186 768.753 280.808C767.577 281.43 766.695 282.278 766.107 283.352L765.391 283.045C765.834 282.227 766.422 281.52 767.155 280.923C767.897 280.327 768.732 279.866 769.661 279.543C770.598 279.219 771.578 279.057 772.601 279.057C773.598 279.057 774.468 279.206 775.209 279.504C775.951 279.794 776.551 280.203 777.012 280.732C777.48 281.251 777.8 281.865 777.971 282.572C778.15 283.28 778.167 284.051 778.022 284.886L775.669 299H774.851L775.516 295.011H775.414C774.868 295.898 774.212 296.673 773.445 297.338C772.686 297.994 771.851 298.506 770.939 298.872C770.036 299.23 769.09 299.409 768.101 299.409ZM768.101 298.591C769.346 298.591 770.539 298.259 771.681 297.594C772.831 296.92 773.811 295.987 774.621 294.794C775.439 293.592 775.976 292.199 776.232 290.614L776.743 287.648C776.479 287.827 776.164 287.984 775.797 288.121C775.439 288.257 775.039 288.381 774.596 288.491C774.161 288.594 773.688 288.683 773.176 288.76C772.674 288.837 772.141 288.909 771.578 288.977C769.789 289.182 768.357 289.493 767.283 289.911C766.209 290.328 765.408 290.852 764.88 291.483C764.351 292.114 764.01 292.847 763.857 293.682C763.627 295.165 763.912 296.354 764.713 297.249C765.515 298.143 766.644 298.591 768.101 298.591ZM789.061 299.409C787.51 299.409 786.24 298.966 785.251 298.08C784.262 297.185 783.585 295.97 783.218 294.436C782.86 292.902 782.839 291.168 783.154 289.233C783.478 287.307 784.079 285.577 784.957 284.043C785.835 282.509 786.913 281.294 788.191 280.399C789.478 279.504 790.885 279.057 792.41 279.057C793.458 279.057 794.383 279.274 795.184 279.709C795.994 280.135 796.654 280.749 797.166 281.55C797.686 282.342 798.027 283.284 798.189 284.375H798.291L800.208 272.818H801.027L796.68 299H795.862L796.68 294.091H796.578C796.041 295.173 795.385 296.115 794.609 296.916C793.842 297.709 792.985 298.322 792.039 298.757C791.102 299.192 790.109 299.409 789.061 299.409ZM789.061 298.591C790.45 298.591 791.728 298.182 792.896 297.364C794.064 296.537 795.044 295.42 795.836 294.014C796.637 292.599 797.183 291.006 797.473 289.233C797.771 287.46 797.771 285.871 797.473 284.464C797.183 283.05 796.612 281.933 795.76 281.115C794.907 280.288 793.791 279.875 792.41 279.875C791.029 279.875 789.755 280.288 788.588 281.115C787.42 281.933 786.431 283.05 785.622 284.464C784.821 285.871 784.271 287.46 783.973 289.233C783.683 291.006 783.683 292.599 783.973 294.014C784.271 295.42 784.846 296.537 785.699 297.364C786.551 298.182 787.672 298.591 789.061 298.591ZM811.19 299.409C809.639 299.409 808.318 298.962 807.227 298.067C806.145 297.172 805.369 295.949 804.9 294.398C804.44 292.847 804.372 291.091 804.696 289.131C805.02 287.222 805.659 285.509 806.613 283.991C807.576 282.466 808.735 281.264 810.091 280.386C811.454 279.5 812.895 279.057 814.412 279.057C815.98 279.057 817.305 279.509 818.387 280.412C819.478 281.315 820.254 282.543 820.714 284.094C821.183 285.645 821.264 287.392 820.957 289.335C820.633 291.244 819.99 292.962 819.027 294.487C818.064 296.004 816.9 297.206 815.537 298.092C814.173 298.97 812.724 299.409 811.19 299.409ZM811.19 298.591C812.605 298.591 813.939 298.182 815.191 297.364C816.444 296.537 817.51 295.412 818.387 293.989C819.265 292.557 819.849 290.937 820.139 289.131C820.429 287.375 820.373 285.798 819.973 284.401C819.572 283.003 818.895 281.899 817.94 281.089C816.985 280.28 815.826 279.875 814.463 279.875C813.065 279.875 811.74 280.293 810.487 281.128C809.234 281.955 808.164 283.084 807.278 284.516C806.392 285.939 805.804 287.545 805.514 289.335C805.207 291.091 805.254 292.668 805.654 294.065C806.064 295.463 806.745 296.567 807.7 297.376C808.663 298.186 809.826 298.591 811.19 298.591ZM825.083 299L828.356 279.364H829.174L828.663 282.483H828.765C829.379 281.46 830.265 280.642 831.424 280.028C832.592 279.415 833.853 279.108 835.208 279.108C835.31 279.108 835.379 279.108 835.413 279.108C835.447 279.108 835.515 279.108 835.617 279.108L835.464 279.926C835.362 279.926 835.293 279.926 835.259 279.926C835.225 279.926 835.157 279.926 835.055 279.926C833.896 279.926 832.822 280.178 831.833 280.68C830.853 281.183 830.031 281.878 829.366 282.764C828.71 283.651 828.288 284.665 828.1 285.807L825.901 299H825.083Z" fill="white"/>
</g>
<defs>
<filter id="filter0_d_32_5" x="1.63636" y="25.0909" width="1019.56" height="246.091" filterUnits="userSpaceOnUse" color-interpolation-filters="sRGB">
<feFlood flood-opacity="0" result="BackgroundImageFix"/>
<feColorMatrix in="SourceAlpha" type="matrix" values="0 0 0 0 0 0 0 0 0 0 0 0 0 0 0 0 0 0 127 0" result="hardAlpha"/>
<feOffset dy="4"/>
<feGaussianBlur stdDeviation="2"/>
<feComposite in2="hardAlpha" operator="out"/>
<feColorMatrix type="matrix" values="0 0 0 0 0 0 0 0 0 0 0 0 0 0 0 0 0 0 0.25 0"/>
<feBlend mode="normal" in2="BackgroundImageFix" result="effect1_dropShadow_32_5"/>
<feBlend mode="normal" in="SourceGraphic" in2="effect1_dropShadow_32_5" result="shape"/>
</filter>
<filter id="filter1_d_32_5" x="183.803" y="264.381" width="655.815" height="51.0568" filterUnits="userSpaceOnUse" color-interpolation-filters="sRGB">
<feFlood flood-opacity="0" result="BackgroundImageFix"/>
<feColorMatrix in="SourceAlpha" type="matrix" values="0 0 0 0 0 0 0 0 0 0 0 0 0 0 0 0 0 0 127 0" result="hardAlpha"/>
<feOffset dy="4"/>
<feGaussianBlur stdDeviation="2"/>
<feComposite in2="hardAlpha" operator="out"/>
<feColorMatrix type="matrix" values="0 0 0 0 0 0 0 0 0 0 0 0 0 0 0 0 0 0 0.25 0"/>
<feBlend mode="normal" in2="BackgroundImageFix" result="effect1_dropShadow_32_5"/>
<feBlend mode="normal" in="SourceGraphic" in2="effect1_dropShadow_32_5" result="shape"/>
</filter>
</defs>
</svg>
