<svg width="329" height="150" viewBox="0 0 329 150" fill="none" xmlns="http://www.w3.org/2000/svg">
<path fill-rule="evenodd" clip-rule="evenodd" d="M84 142.5H126.5L177 116.5L229.5 142.5L272 121V108.5L285.5 116.5L329 95V87.5L300.5 59L273 52.5V31.5L245 3.5H200.5L150 29L98 3L55.5 25V38L42.5 31.5L0 52.5V59.5L27 87L55.5 94.5V114.5L84 142.5ZM136 95.5L163 109.5L126.5 129H84L70 114.5L83.5 87L27 72.5L14 59L42.5 45.5L55.5 59L99 69.5L104 65.5L71 31.5L97.5 18L132 51.5V92.5L118.5 80.5L98 100.5L113 114.5L139 100.5L136 95.5ZM257.5 114.5L229.5 128L197 95.5V53.5L209.5 66L230.5 45.5L215.5 31.5L189 45.5L192.5 50.5L165 36L200.5 17L245 18L257.5 31.5L245 59L300.5 73.5L313.5 86.5L285.5 101L272 86.5L230.5 76L224 81L257.5 114.5Z" fill="#767676"/>
</svg>
