<svg width="329" height="140" viewBox="0 0 329 140" fill="none" xmlns="http://www.w3.org/2000/svg">
<path fill-rule="evenodd" clip-rule="evenodd" d="M84 139.5H126.5L177 113.5L229.5 139.5L272 118V105.5L285.5 113.5L329 92V84.5L300.5 56L273 49.5V28.5L245 0.5H200.5L150 26L98 0L55.5 22V35L42.5 28.5L0 49.5V56.5L27 84L55.5 91.5V111.5L84 139.5ZM136 92.5L163 106.5L126.5 126H84L70 111.5L83.5 84L27 69.5L14 56L42.5 42.5L55.5 56L99 66.5L104 62.5L71 28.5L97.5 15L132 48.5V89.5L118.5 77.5L98 97.5L113 111.5L139 97.5L136 92.5ZM257.5 111.5L229.5 125L197 92.5V50.5L209.5 63L230.5 42.5L215.5 28.5L189 42.5L192.5 47.5L165 33L200.5 14L245 15L257.5 28.5L245 56L300.5 70.5L313.5 83.5L285.5 98L272 83.5L230.5 73L224 78L257.5 111.5Z" fill="white"/>
</svg>
